<svg width="21" height="21" viewBox="0 0 21 21" fill="none" xmlns="http://www.w3.org/2000/svg">
<path d="M10.5 1.64062C8.74779 1.64063 7.03492 2.16022 5.578 3.1337C4.12108 4.10718 2.98555 5.49083 2.31501 7.10966C1.64446 8.7285 1.46902 10.5098 1.81086 12.2284C2.1527 13.9469 2.99647 15.5255 4.23548 16.7645C5.47449 18.0035 7.05307 18.8473 8.77163 19.1891C10.4902 19.531 12.2715 19.3555 13.8903 18.685C15.5092 18.0145 16.8928 16.8789 17.8663 15.422C18.8398 13.9651 19.3594 12.2522 19.3594 10.5C19.3568 8.15115 18.4225 5.89924 16.7617 4.23835C15.1008 2.57746 12.8489 1.64323 10.5 1.64062ZM11.4844 17.3193V12.7969H13.125C13.3861 12.7969 13.6365 12.6932 13.8211 12.5086C14.0057 12.324 14.1094 12.0736 14.1094 11.8125C14.1094 11.5514 14.0057 11.301 13.8211 11.1164C13.6365 10.9318 13.3861 10.8281 13.125 10.8281H11.4844V9.1875C11.4844 8.92643 11.5881 8.67605 11.7727 8.49144C11.9573 8.30684 12.2077 8.20313 12.4688 8.20313H13.7813C14.0423 8.20313 14.2927 8.09942 14.4773 7.91481C14.6619 7.7302 14.7656 7.47982 14.7656 7.21875C14.7656 6.95768 14.6619 6.7073 14.4773 6.52269C14.2927 6.33809 14.0423 6.23438 13.7813 6.23438H12.4688C11.6855 6.23438 10.9344 6.54551 10.3806 7.09933C9.82676 7.65314 9.51563 8.40428 9.51563 9.1875V10.8281H7.875C7.61393 10.8281 7.36355 10.9318 7.17895 11.1164C6.99434 11.301 6.89063 11.5514 6.89063 11.8125C6.89063 12.0736 6.99434 12.324 7.17895 12.5086C7.36355 12.6932 7.61393 12.7969 7.875 12.7969H9.51563V17.3193C7.79141 17.0704 6.22545 16.1777 5.1329 14.8208C4.04035 13.4638 3.50232 11.7435 3.62707 10.0059C3.75183 8.26824 4.53011 6.64237 5.8053 5.45545C7.08049 4.26854 8.75792 3.60868 10.5 3.60868C12.2421 3.60868 13.9195 4.26854 15.1947 5.45545C16.4699 6.64237 17.2482 8.26824 17.3729 10.0059C17.4977 11.7435 16.9597 13.4638 15.8671 14.8208C14.7746 16.1777 13.2086 17.0704 11.4844 17.3193Z" fill="white"/>
</svg>
