<svg width="17" height="16" viewBox="0 0 17 16" fill="none" xmlns="http://www.w3.org/2000/svg">
<path d="M8.5 4.44444C7.75283 4.44444 7.02243 4.65297 6.40118 5.04366C5.77993 5.43435 5.29572 5.98966 5.00979 6.63935C4.72386 7.28904 4.64904 8.00394 4.79481 8.69365C4.94058 9.38336 5.30038 10.0169 5.82871 10.5142C6.35704 11.0114 7.03017 11.35 7.76299 11.4872C8.49581 11.6244 9.25539 11.554 9.94569 11.2849C10.636 11.0158 11.226 10.5601 11.6411 9.97536C12.0562 9.39065 12.2778 8.70322 12.2778 8C12.2767 7.05731 11.8784 6.15351 11.1701 5.48693C10.4619 4.82034 9.50161 4.44543 8.5 4.44444ZM8.5 9.77778C8.12641 9.77778 7.76122 9.67351 7.45059 9.47817C7.13996 9.28282 6.89786 9.00517 6.75489 8.68033C6.61193 8.35548 6.57452 7.99803 6.64741 7.65317C6.72029 7.30832 6.90019 6.99155 7.16435 6.74292C7.42852 6.49429 7.76509 6.32498 8.1315 6.25638C8.4979 6.18779 8.8777 6.22299 9.22285 6.35755C9.568 6.4921 9.863 6.71997 10.0706 7.01232C10.2781 7.30467 10.3889 7.64839 10.3889 8C10.3889 8.4715 10.1899 8.92368 9.83565 9.25708C9.48141 9.59048 9.00096 9.77778 8.5 9.77778ZM12.2778 0H4.72222C3.47026 0.00137231 2.26999 0.470066 1.38472 1.30326C0.499445 2.13646 0.00145807 3.26613 0 4.44444V11.5556C0.00145807 12.7339 0.499445 13.8635 1.38472 14.6967C2.26999 15.5299 3.47026 15.9986 4.72222 16H12.2778C13.5297 15.9986 14.73 15.5299 15.6153 14.6967C16.5006 13.8635 16.9985 12.7339 17 11.5556V4.44444C16.9985 3.26613 16.5006 2.13646 15.6153 1.30326C14.73 0.470066 13.5297 0.00137231 12.2778 0ZM15.1111 11.5556C15.1111 12.2628 14.8126 12.9411 14.2812 13.4412C13.7499 13.9413 13.0292 14.2222 12.2778 14.2222H4.72222C3.97078 14.2222 3.25011 13.9413 2.71875 13.4412C2.1874 12.9411 1.88889 12.2628 1.88889 11.5556V4.44444C1.88889 3.7372 2.1874 3.05892 2.71875 2.55883C3.25011 2.05873 3.97078 1.77778 4.72222 1.77778H12.2778C13.0292 1.77778 13.7499 2.05873 14.2812 2.55883C14.8126 3.05892 15.1111 3.7372 15.1111 4.44444V11.5556ZM13.8519 4.14815C13.8519 4.38256 13.778 4.6117 13.6396 4.8066C13.5013 5.0015 13.3046 5.15341 13.0745 5.24312C12.8444 5.33282 12.5912 5.35629 12.3469 5.31056C12.1027 5.26483 11.8783 5.15195 11.7022 4.9862C11.5261 4.82045 11.4061 4.60927 11.3575 4.37937C11.3089 4.14946 11.3339 3.91116 11.4292 3.6946C11.5245 3.47803 11.6859 3.29293 11.893 3.1627C12.1001 3.03247 12.3435 2.96296 12.5926 2.96296C12.9266 2.96296 13.2469 3.08783 13.483 3.3101C13.7192 3.53236 13.8519 3.83382 13.8519 4.14815Z" fill="white"/>
</svg>
