<svg width="24" height="28" viewBox="0 0 24 28" fill="none" xmlns="http://www.w3.org/2000/svg">
<path d="M11.8901 9.00049H13C13 5.58011 10.8507 3.00049 8 3.00049V4.33397C10.2542 4.33397 11.8901 6.29619 11.8901 9.00049Z" fill="white"/>
<path d="M7.61391 6.97341C8.79448 6.97341 9.29803 7.52727 9.29803 8.82581H10.4208C10.4208 6.83448 9.42434 5.73847 7.61391 5.73847V6.97341ZM9.53493 10.3343C9.42706 10.2264 9.28531 10.1689 9.13961 10.1739C8.99391 10.1788 8.85567 10.2459 8.75406 10.3608L7.41069 11.8804C7.08734 11.8125 6.43726 11.5896 5.76811 10.8554C5.09895 10.1188 4.89629 9.40191 4.83622 9.04872L6.21664 7.5705C6.32129 7.45881 6.38233 7.30673 6.38683 7.14642C6.39134 6.98612 6.33896 6.83018 6.24078 6.7116L4.1665 4.20283C4.06829 4.08388 3.93178 4.01172 3.78598 4.00169C3.64017 3.99166 3.49656 4.04454 3.38563 4.14911L2.16745 5.29822C2.07039 5.40536 2.01246 5.54795 2.00465 5.69895C1.99623 5.85332 1.83568 9.50996 4.41351 12.3466C6.66238 14.8196 9.47935 15.0005 10.2552 15.0005C10.3686 15.0005 10.4382 14.9968 10.4567 14.9955C10.594 14.9871 10.7235 14.9231 10.8205 14.8159L11.8646 13.4753C11.9598 13.3534 12.0079 13.1955 11.9989 13.0351C11.9899 12.8747 11.9244 12.7246 11.8164 12.6164L9.53493 10.3343Z" fill="white"/>
</svg>
