<svg width="6" height="5" viewBox="0 0 6 5" fill="none" xmlns="http://www.w3.org/2000/svg">
<g clip-path="url(#clip0_1_1197)">
<path d="M3.3015 0.175781C3.24629 0.0683594 3.12962 0 3.0015 0C2.87337 0 2.75775 0.0683594 2.7015 0.175781L2.03171 1.46777L0.535874 1.6748C0.410874 1.69238 0.306708 1.77441 0.268166 1.88672C0.229624 1.99902 0.260874 2.12305 0.350458 2.20605L1.43587 3.21289L1.17962 4.63574C1.15879 4.75293 1.21087 4.87207 1.314 4.94141C1.41712 5.01074 1.55358 5.01953 1.66608 4.96387L3.00254 4.29492L4.339 4.96387C4.4515 5.01953 4.58796 5.01172 4.69108 4.94141C4.79421 4.87109 4.84629 4.75293 4.82546 4.63574L4.56817 3.21289L5.65358 2.20605C5.74317 2.12305 5.77546 1.99902 5.73587 1.88672C5.69629 1.77441 5.59317 1.69238 5.46817 1.6748L3.97129 1.46777L3.3015 0.175781Z" fill="#FAB700"/>
</g>
<defs>
<clipPath id="clip0_1_1197">
<rect width="6" height="5" fill="white"/>
</clipPath>
</defs>
</svg>
