<svg width="35" height="32" viewBox="0 0 35 32" fill="none" xmlns="http://www.w3.org/2000/svg">
<g clip-path="url(#clip0_1_241)">
<path d="M15.7558 6.99997C15.7558 6.49997 16 1.49997 15.7558 1.12584C15.849 1.81927 16.0839 0.43834 15.7558 1.12584L11.8487 9.39367L3.123 10.7187C2.39384 10.8312 1.7862 11.3562 1.56137 12.0749C1.33655 12.7937 1.51884 13.5874 2.04141 14.1187L8.373 20.5624L6.87821 29.6687C6.75669 30.4187 7.0605 31.1812 7.66207 31.6249C8.26363 32.0687 9.05964 32.1249 9.71589 31.7687L15.7558 28C15.7439 27.5125 15.7558 26 15.7558 25C15.6748 24.5 15.8773 25.75 15.7558 25C15.7558 24 15.7558 22.5 15.7558 21.5C15.7558 21 15.7558 18.5 15.7558 17V12.0749V6.99997Z" fill="#DA3D12"/>
</g>
<defs>
<clipPath id="clip0_1_241">
<rect width="35" height="32" fill="white"/>
</clipPath>
</defs>
</svg>
