<svg width="35" height="32" viewBox="0 0 35 32" fill="none" xmlns="http://www.w3.org/2000/svg">
<g clip-path="url(#clip0_1_233)">
<path d="M19.2558 1.125C18.9338 0.4375 18.2532 0 17.5058 0C16.7584 0 16.0839 0.4375 15.7558 1.125L11.8487 9.39375L3.123 10.7188C2.39384 10.8313 1.7862 11.3562 1.56137 12.075C1.33655 12.7937 1.51884 13.5875 2.04141 14.1187L8.373 20.5625L6.87821 29.6688C6.75669 30.4188 7.0605 31.1812 7.66207 31.625C8.26363 32.0687 9.05964 32.125 9.71589 31.7687L17.5119 27.4875L25.3079 31.7687C25.9642 32.125 26.7602 32.075 27.3617 31.625C27.9633 31.175 28.2671 30.4188 28.1456 29.6688L26.6447 20.5625L32.9763 14.1187C33.4989 13.5875 33.6872 12.7937 33.4563 12.075C33.2254 11.3562 32.6239 10.8313 31.8947 10.7188L23.1629 9.39375L19.2558 1.125Z" fill="#DA3D12"/>
</g>
<defs>
<clipPath id="clip0_1_233">
<rect width="35" height="32" fill="white"/>
</clipPath>
</defs>
</svg>
