<svg width="10" height="10" viewBox="0 0 10 10" fill="none" xmlns="http://www.w3.org/2000/svg">
<path d="M10 5.01862C10 2.24662 7.76172 0 5 0C2.23828 0 0 2.24662 0 5.01862C0 7.3711 1.61523 9.34719 3.79297 9.89022V6.55166H2.76172V5.01862H3.79297V4.35797C3.79297 2.65046 4.5625 1.85846 6.23438 1.85846C6.55078 1.85846 7.09766 1.92119 7.32227 1.98392V3.37189C7.20508 3.36013 7 3.35228 6.74414 3.35228C5.92383 3.35228 5.60742 3.66399 5.60742 4.47363V5.01862H7.24023L6.95898 6.55166H5.60547V10C8.08203 9.70006 10 7.58479 10 5.01862Z" fill="#1C6360"/>
</svg>
